<svg width="455" height="106" viewBox="0 0 455 106" fill="none" xmlns="http://www.w3.org/2000/svg">
<g clip-path="url(#clip0_19619_26368)">
<mask id="mask0_19619_26368" style="mask-type:luminance" maskUnits="userSpaceOnUse" x="0" y="0" width="455" height="106">
<path d="M0 4.57764e-05H454.52V105.609H0V4.57764e-05Z" fill="white"/>
</mask>
<g mask="url(#mask0_19619_26368)">
<path d="M183.603 60.7654C184.638 60.7654 185.679 60.7654 186.72 60.7654C188.119 60.7668 188.122 60.7668 188.124 62.1694C188.127 63.9348 188.124 65.7014 188.124 67.6614C185.358 65.4148 182.984 62.9854 180.71 60.4561C178.436 57.9254 176.324 55.2641 174.276 52.5441C174.532 53.4601 175.026 54.2561 175.49 55.0628C177.308 58.2281 179.051 61.4388 181.391 64.2748C184.167 67.6414 187.355 70.5774 190.732 73.3214C193.086 75.2334 195.523 77.0161 198.199 78.4654C201.524 80.2654 205.007 81.6588 208.62 82.7668C211.378 83.6121 214.178 84.2721 217.002 84.8121C223.099 85.9801 229.25 86.2628 235.438 85.7454C239.272 85.4254 243.07 84.8668 246.847 84.1294C250.42 83.4321 253.954 82.5774 257.46 81.6094C260.223 80.8481 262.971 80.0254 265.684 79.0974C265.871 79.0334 266.066 78.9894 266.447 78.8814C265.64 79.5654 264.811 79.7948 264.06 80.1494C260.532 81.8121 256.974 83.4161 253.222 84.5148C249.258 85.6748 245.227 86.5534 241.167 87.3214C235.486 88.3961 229.767 88.7574 224.006 88.4894C220.296 88.3161 216.596 87.9934 212.94 87.3174C211.29 87.0121 209.688 87.0841 208.034 87.3681C203.286 88.1841 198.515 88.6681 193.678 88.1534C191.099 87.8788 188.524 87.6148 185.991 87.0561C181.096 85.9788 176.85 83.6374 173.006 80.4681C169.259 77.3788 166.818 73.4481 165.259 68.9067C163.88 64.8908 163.171 60.7467 162.824 56.5267C162.514 52.7681 162.686 49.0281 163.072 45.2801C163.352 42.5641 163.755 39.8721 164.24 37.1908C164.658 34.8881 165.17 32.6014 165.715 30.3214C166.327 27.7654 166.983 25.2214 167.704 22.6934C168.334 20.4934 169.004 18.3027 169.706 15.9427C170.386 17.2614 170.94 18.4388 171.584 19.5641C172.906 21.8734 174.796 23.7027 176.722 25.4987C181.099 29.5827 186.286 32.2801 191.823 34.4068C195.072 35.6548 198.434 36.5827 201.659 37.8921C206.563 39.8841 211.239 42.2708 214.851 46.2708C217.319 49.0041 218.979 52.2201 220.115 55.7188C221.383 59.6294 221.238 63.5868 220.683 67.5854C220.302 70.3388 219.747 73.0441 218.716 75.6254C217.948 77.5454 217.076 79.4254 216.231 81.3148C216.106 81.5974 215.98 81.9481 215.502 81.8334C215.035 81.7214 215.072 81.3881 215.072 81.0548C215.071 74.4774 215.075 67.9001 215.062 61.3228C215.06 60.8588 215.24 60.7614 215.658 60.7668C216.976 60.7881 218.295 60.7748 219.612 60.7748C219.678 60.5454 219.508 60.4868 219.399 60.3894C213.594 55.2228 207.787 50.0574 201.988 44.8814C201.719 44.6401 201.574 44.5428 201.242 44.8414C195.448 50.0281 189.64 55.1974 183.836 60.3721C183.742 60.4574 183.591 60.5014 183.603 60.7654Z" fill="white"/>
<path d="M225.957 7.28922C225.937 7.56921 225.736 7.65321 225.608 7.79188C224.055 9.46121 222.404 11.0532 221.372 13.1319C220.771 14.3452 220.397 15.6305 220.057 16.9399C219.604 18.6839 219.565 20.4706 219.371 22.2385C219.175 24.0025 219.456 25.7519 219.752 27.4932C220.105 29.5799 220.724 31.5945 221.471 33.5652C222.404 36.0305 223.531 38.4145 224.751 40.7532C226.283 43.6945 228.145 46.4532 229.615 49.4279C230.755 51.7372 231.671 54.1252 232.217 56.6625C232.703 58.9212 232.792 61.1839 232.407 63.4332C231.744 67.2905 230.227 70.7639 227.475 73.6412C225.48 75.7265 223.383 77.6852 220.951 79.2559C220.441 79.5839 219.957 79.9785 219.22 80.1719C219.572 79.3492 219.887 78.6345 220.187 77.9132C220.909 76.1745 221.449 74.3745 221.936 72.5599C222.449 70.6519 222.897 68.7239 223.189 66.7719C223.389 65.4279 223.424 64.0572 223.401 62.6919C223.367 60.6345 223.12 58.5945 222.691 56.5879C222.112 53.8865 221.149 51.3225 219.717 48.9399C217.504 45.2545 214.523 42.3145 211.015 39.8745C207.667 37.5452 204 35.8492 200.193 34.4425C198.452 33.7985 196.664 33.2812 194.944 32.5692C194.632 32.4385 194.517 32.3719 194.645 32.0145C195.801 28.8039 197.227 25.7292 199.081 22.8545C201.196 19.5759 203.828 16.8119 207.057 14.6159C209.036 13.2692 211.059 11.9959 213.203 10.9279C215.569 9.74921 218.019 8.81055 220.624 8.29188C222.083 8.00121 223.525 7.62922 224.977 7.30521C225.295 7.23589 225.623 7.21455 225.957 7.28922Z" fill="white"/>
<path d="M205.294 71.6833C205.294 73.5593 205.294 75.4366 205.294 77.3126C205.294 78.0886 205.244 78.1126 204.507 77.802C202.431 76.9246 200.507 75.7806 198.611 74.5646C197.767 74.0233 197.422 73.454 197.464 72.43C197.556 70.2446 197.504 68.0526 197.484 65.8633C197.48 65.4166 197.578 65.246 198.067 65.2526C200.279 65.278 202.492 65.2766 204.704 65.2526C205.174 65.2473 205.31 65.3846 205.304 65.8526C205.279 67.7966 205.294 69.7393 205.294 71.6833Z" fill="white"/>
<path d="M201.365 58.3086C199.575 58.3099 198.273 57.0153 198.289 55.2353C198.307 53.3779 199.615 52.1313 201.395 52.1686C203.259 52.2059 204.408 53.3899 204.441 55.2299C204.473 57.0593 203.172 58.3073 201.365 58.3086Z" fill="white"/>
<path d="M14.7415 55.404V71.908H43.2242C44.1362 71.908 44.7802 71.7667 45.1602 71.4853C45.5415 71.2027 45.8282 70.6493 46.0242 69.824H47.0655V78.2227H46.0242C45.8069 77.3987 45.5082 76.8453 45.1295 76.5627C44.7495 76.28 44.1042 76.14 43.1949 76.14H7.54688V75.0987C8.39354 74.8813 8.95221 74.588 9.22287 74.2187C9.49354 73.8507 9.63087 73.2093 9.63087 72.2987V35.5467C9.63087 34.636 9.48954 33.996 9.20821 33.6267C8.92554 33.2587 8.37221 32.9653 7.54688 32.748V31.7067H42.8015C43.7135 31.7067 44.3522 31.568 44.7215 31.2893C45.0909 31.012 45.3829 30.456 45.6015 29.6227H46.6429V38.0213H45.6015C45.4055 37.2053 45.1175 36.6547 44.7375 36.368C44.3575 36.0813 43.7135 35.9373 42.8015 35.9373H14.7415V51.172H33.1335C34.0455 51.172 34.6895 51.032 35.0695 50.7493C35.4495 50.4667 35.7375 49.9133 35.9335 49.0893H36.9749V57.4867H35.9335C35.7375 56.6627 35.4495 56.1093 35.0695 55.8267C34.6895 55.5453 34.0455 55.404 33.1335 55.404H14.7415Z" fill="white"/>
<path d="M60.512 45.3793V72.462C60.512 73.3526 60.648 73.9873 60.9187 74.3673C61.1894 74.7473 61.7494 75.046 62.5947 75.262V76.1406H54.5547V75.262C55.4014 75.046 55.96 74.7473 56.2307 74.3673C56.5014 73.9873 56.6387 73.3526 56.6387 72.462V43.3606C56.6387 42.45 56.496 41.81 56.2147 41.4406C55.932 41.0726 55.3787 40.7793 54.5547 40.562V39.6833H66.404V40.562C65.2747 40.9313 64.7107 41.4953 64.7107 42.254C64.7107 42.906 65.1227 43.686 65.948 44.598L87.4654 68.686V43.3606C87.4654 42.45 87.3227 41.81 87.0414 41.4406C86.76 41.0726 86.2067 40.7793 85.3814 40.562V39.6833H93.4227V40.562C92.596 40.7793 92.0427 41.0726 91.7614 41.4406C91.48 41.81 91.3387 42.45 91.3387 43.3606V72.462C91.3387 73.3526 91.4747 73.9873 91.7453 74.3673C92.016 74.7473 92.576 75.046 93.4227 75.262V76.1406H83.884V75.262C85.012 74.9806 85.5774 74.5353 85.5774 73.9273C85.5774 73.4713 85.056 72.658 84.0147 71.486L60.512 45.3793Z" fill="white"/>
<path d="M107.973 59.0827V72.592H130.5C131.41 72.592 132.056 72.4533 132.436 72.1747C132.816 71.8973 133.104 71.3413 133.298 70.508H134.21V78.2227H133.298C133.104 77.3987 132.821 76.8453 132.452 76.5627C132.082 76.28 131.444 76.14 130.532 76.14H101.234V75.2613C102.081 75.044 102.64 74.7467 102.91 74.3653C103.181 73.9867 103.318 73.352 103.318 72.4613V43.36C103.318 42.448 103.176 41.808 102.894 41.44C102.612 41.0707 102.058 40.7773 101.234 40.56V39.6813H130.304C131.216 39.6813 131.854 39.5413 132.224 39.2587C132.593 38.976 132.886 38.4227 133.104 37.5987H133.982V45.3133H133.104C132.886 44.48 132.593 43.924 132.224 43.6467C131.854 43.368 131.216 43.2293 130.304 43.2293H107.973V55.5347H122.198C123.11 55.5347 123.749 55.3933 124.118 55.1107C124.488 54.8293 124.78 54.276 124.998 53.4507H125.877V61.1653H124.998C124.78 60.332 124.482 59.7773 124.102 59.4987C123.722 59.2213 123.088 59.0827 122.198 59.0827H107.973Z" fill="white"/>
<path d="M147.715 56.0886H161.582C163.817 56.0886 165.494 56.0073 166.611 55.8446C167.729 55.682 168.679 55.3833 169.461 54.95C171.174 53.9953 172.031 52.3353 172.031 49.9686C172.031 47.69 171.229 45.9766 169.623 44.826C168.146 43.762 165.639 43.23 162.103 43.23H147.715V56.0886ZM147.715 59.6366V72.462C147.715 73.3526 147.855 73.9873 148.138 74.366C148.419 74.7473 148.973 75.0446 149.798 75.262V76.1406H140.977V75.262C141.823 75.0446 142.382 74.7473 142.653 74.366C142.923 73.9873 143.061 73.3526 143.061 72.462V43.3606C143.061 42.45 142.918 41.81 142.637 41.4406C142.354 41.0713 141.801 40.7793 140.977 40.5606V39.682H162.625C165.077 39.682 167.077 39.8566 168.63 40.2033C170.182 40.5513 171.531 41.1366 172.683 41.9606C175.199 43.7406 176.459 46.3446 176.459 49.774C176.459 52.5726 175.579 54.782 173.822 56.398C172.065 58.0153 169.481 58.986 166.075 59.3113L175.222 73.83C175.547 74.3286 175.866 74.666 176.182 74.842C176.497 75.018 177.055 75.158 177.858 75.262V76.1406H168.835V75.262C169.682 75.0886 170.105 74.8166 170.105 74.4486C170.105 74.1873 169.855 73.6673 169.355 72.886L160.969 59.6366H147.715Z" fill="white"/>
<path d="M271.755 35.9712L266.757 43.9139L265.912 43.3299C266.301 42.6819 266.497 42.1952 266.497 41.8712C266.497 41.2005 265.337 40.2499 263.016 39.0179C258.548 36.5965 253.971 35.3859 249.284 35.3859C243.84 35.3859 239.252 36.9139 235.521 39.9712C231.248 43.4405 229.112 48.1232 229.112 54.0219C229.112 59.7672 231.151 64.3419 235.231 67.7459C238.985 70.8899 243.781 72.4619 249.619 72.4619C252.7 72.4619 255.636 71.9792 258.424 71.0139C261.213 70.0485 263.561 68.6965 265.472 66.9605V58.7579H254.957C254.047 58.7579 253.4 58.8992 253.02 59.1805C252.641 59.4632 252.353 60.0165 252.159 60.8405H251.116V52.4432H252.159C252.353 53.2672 252.641 53.8205 253.02 54.1032C253.4 54.3859 254.047 54.5259 254.957 54.5259H272.439V55.5672C271.613 55.7845 271.06 56.0779 270.779 56.4459C270.496 56.8152 270.355 57.4552 270.355 58.3672V64.1285C270.355 65.0405 270.496 65.6805 270.779 66.0499C271.06 66.4179 271.613 66.7112 272.439 66.9285V67.8392C269.985 70.0312 267.673 71.7352 265.505 72.9499C260.795 75.5979 255.424 76.9219 249.392 76.9219C241.969 76.9219 235.968 74.9152 231.391 70.8992C229.132 68.9245 227.341 66.5592 226.019 63.8032C224.521 60.6565 223.773 57.3365 223.773 53.8419C223.773 48.8299 225.237 44.3805 228.168 40.4965C230.88 36.9152 234.525 34.3005 239.105 32.6512C242.339 31.5005 245.811 30.9259 249.521 30.9259C252.777 30.9259 255.792 31.3165 258.571 32.0979C261.348 32.8792 264.343 34.1699 267.556 35.9712C268.488 36.4925 269.063 36.7525 269.281 36.7525C269.627 36.7525 270.16 36.2965 270.876 35.3859L271.755 35.9712Z" fill="white"/>
<path d="M286.629 56.0886H300.496C302.731 56.0886 304.408 56.0073 305.527 55.8446C306.644 55.682 307.593 55.3833 308.375 54.95C310.088 53.9953 310.945 52.3353 310.945 49.9686C310.945 47.69 310.143 45.9766 308.537 44.826C307.06 43.762 304.553 43.23 301.017 43.23H286.629V56.0886ZM286.629 59.6366V72.462C286.629 73.3526 286.769 73.9873 287.052 74.366C287.333 74.7473 287.887 75.0446 288.712 75.262V76.1406H279.891V75.262C280.737 75.0446 281.296 74.7473 281.568 74.366C281.839 73.9873 281.975 73.3526 281.975 72.462V43.3606C281.975 42.45 281.832 41.81 281.551 41.4406C281.268 41.0713 280.715 40.7793 279.891 40.5606V39.682H301.539C303.991 39.682 305.992 39.8566 307.545 40.2033C309.096 40.5513 310.445 41.1366 311.597 41.9606C314.113 43.7406 315.373 46.3446 315.373 49.774C315.373 52.5726 314.493 54.782 312.736 56.398C310.979 58.0153 308.395 58.986 304.989 59.3113L314.136 73.83C314.461 74.3286 314.781 74.666 315.097 74.842C315.411 75.018 315.969 75.158 316.772 75.262V76.1406H307.749V75.262C308.596 75.0886 309.02 74.8166 309.02 74.4486C309.02 74.1873 308.769 73.6673 308.269 72.886L299.884 59.6366H286.629Z" fill="white"/>
<path d="M342.978 42.6765C337.682 42.6765 333.418 44.3045 330.185 47.5592C327.364 50.3805 325.953 53.8312 325.953 57.9112C325.953 61.9912 327.364 65.4419 330.185 68.2619C333.418 71.5179 337.705 73.1459 343.044 73.1459C348.382 73.1459 352.668 71.5179 355.901 68.2619C358.722 65.4419 360.133 62.0565 360.133 58.1059C360.133 53.8312 358.722 50.3152 355.901 47.5592C352.646 44.3472 348.338 42.7205 342.978 42.6765ZM342.978 38.9005C349.466 38.9005 354.697 40.5939 358.669 43.9792C362.9 47.5592 365.016 52.2899 365.016 58.1712C365.016 61.8392 363.974 65.2032 361.892 68.2619C357.962 74.0352 351.68 76.9219 343.044 76.9219C336.598 76.9219 331.39 75.2285 327.418 71.8432C323.186 68.2405 321.07 63.5965 321.07 57.9112C321.07 54.0699 322.101 50.6192 324.164 47.5592C326.354 44.3259 329.425 41.9712 333.376 40.4952C336.088 39.4765 339.288 38.9445 342.978 38.9005Z" fill="white"/>
<path d="M377.973 43.3605V62.0779C377.973 64.9645 378.113 66.9552 378.396 68.0512C378.677 69.1472 379.296 70.0645 380.252 70.8019C382.205 72.3645 385.546 73.1459 390.278 73.1459C395.506 73.1459 399.045 72.1912 400.889 70.2805C401.561 69.5645 402.006 68.6805 402.224 67.6285C402.441 66.5765 402.55 64.7259 402.55 62.0779V43.3605C402.55 42.4712 402.408 41.8365 402.126 41.4565C401.844 41.0765 401.29 40.7779 400.466 40.5605V39.6819H408.506V40.5605C407.681 40.7779 407.128 41.0712 406.846 41.4405C406.564 41.8085 406.424 42.4485 406.424 43.3605V63.0219C406.424 66.3645 406.141 68.7192 405.577 70.0859C404.621 72.4299 402.876 74.1552 400.336 75.2619C397.797 76.3685 394.302 76.9219 389.854 76.9219C383.474 76.9219 379.002 75.7392 376.444 73.3739C375.206 72.2459 374.376 70.9752 373.953 69.5645C373.529 68.1552 373.318 65.9739 373.318 63.0219V43.3605C373.318 42.4485 373.176 41.8085 372.894 41.4405C372.612 41.0712 372.058 40.7779 371.234 40.5605V39.6819H380.056V40.5605C379.23 40.7779 378.677 41.0765 378.396 41.4565C378.113 41.8365 377.973 42.4712 377.973 43.3605Z" fill="white"/>
<path d="M422.371 56.2193H435.197C437.518 56.2193 439.233 56.1273 440.341 55.942C441.447 55.758 442.391 55.406 443.173 54.8846C444.69 53.886 445.451 52.162 445.451 49.7086C445.451 47.3006 444.69 45.586 443.173 44.566C442.391 44.0446 441.453 43.6926 440.357 43.5073C439.261 43.3233 437.541 43.2313 435.197 43.2313H422.371V56.2193ZM422.371 59.7673V72.7553C422.371 73.4073 422.518 73.906 422.81 74.2526C423.105 74.6006 423.619 74.8833 424.357 75.0993V76.1406H415.633V75.0993C416.414 74.8833 416.955 74.6006 417.261 74.2526C417.565 73.906 417.717 73.4073 417.717 72.7553V42.8406C417.717 42.2113 417.559 41.7393 417.245 41.4246C416.93 41.11 416.393 40.8553 415.633 40.6593V39.6833H435.815C438.506 39.6833 440.541 39.802 441.919 40.0406C443.297 40.2793 444.539 40.7353 445.646 41.4086C446.969 42.19 448.01 43.3233 448.771 44.81C449.53 46.2966 449.91 47.9406 449.91 49.742C449.91 51.5433 449.537 53.17 448.787 54.6246C448.039 56.0793 446.981 57.2073 445.614 58.01C444.485 58.7046 443.237 59.1713 441.87 59.41C440.503 59.6486 438.485 59.7673 435.815 59.7673H422.371Z" fill="white"/>
</g>
</g>
<defs>
<clipPath id="clip0_19619_26368">
<rect width="454.52" height="105.609" fill="white"/>
</clipPath>
</defs>
</svg>
