<svg width="96" height="96" viewBox="0 0 96 96" fill="none" xmlns="http://www.w3.org/2000/svg">
<rect width="96" height="96" rx="10.6667" fill="#2A7DEC" fill-opacity="0.12"/>
<path fill-rule="evenodd" clip-rule="evenodd" d="M40.7226 54.2041C41.4583 53.4684 42.651 53.4684 43.3866 54.2041L48.3337 59.151L53.2806 54.2041C54.0163 53.4684 55.2091 53.4684 55.9447 54.2041C56.6804 54.9397 56.6804 56.1323 55.9447 56.8679L50.9976 61.8151L55.9447 66.7622C56.6804 67.4979 56.6804 68.6904 55.9447 69.426C55.2091 70.1617 54.0163 70.1617 53.2806 69.426L48.3337 64.4791L43.3866 69.426C42.651 70.1617 41.4583 70.1617 40.7226 69.426C39.987 68.6904 39.987 67.4979 40.7226 66.7622L45.6697 61.8151L40.7226 56.8679C39.987 56.1323 39.987 54.9397 40.7226 54.2041Z" fill="#2A7DEC"/>
<path fill-rule="evenodd" clip-rule="evenodd" d="M48.5532 41.0938C54.8627 41.0938 60.9918 43.8706 66.0311 49.2209C66.7444 49.9781 66.7088 51.1701 65.9513 51.8837C65.194 52.597 64.002 52.5613 63.2887 51.8038C58.865 47.1076 53.692 44.8612 48.5532 44.8612C43.4069 44.8612 38.0702 47.1149 33.3407 51.8442C32.6051 52.5799 31.4124 52.5799 30.6767 51.8442C29.9411 51.1086 29.9411 49.9161 30.6767 49.1804C35.9937 43.8633 42.2511 41.0938 48.5532 41.0938Z" fill="#2A7DEC"/>
<path fill-rule="evenodd" clip-rule="evenodd" d="M48.3339 26.0234C57.4423 26.0234 66.4528 29.579 74.6655 36.5141C75.4605 37.1853 75.5607 38.3738 74.8893 39.1687C74.2182 39.9635 73.0297 40.0638 72.2348 39.3926C64.5849 32.9327 56.4103 29.7908 48.3339 29.7909C40.2575 29.7909 32.0832 32.9328 24.4331 39.3929C23.6382 40.0641 22.4497 39.9638 21.7785 39.169C21.1073 38.3741 21.2076 37.1856 22.0024 36.5144C30.2152 29.5792 39.2256 26.0235 48.3339 26.0234Z" fill="#2A7DEC"/>
</svg>
